<svg xmlns="http://www.w3.org/2000/svg" xml:space="preserve" style="fill-rule:evenodd;clip-rule:evenodd;stroke-linejoin:round;stroke-miterlimit:2" viewBox="0 0 128 128"><path d="M7629.13 5609.33c-69.49-36.98-116.84-110.15-116.84-194.3 0-121.4 98.56-219.96 219.96-219.96s219.95 98.56 219.95 219.96-70.89 219.96-192.28 219.96c-11.59 0-22.97-.9-34.07-2.63l18.45-101.46c0-4.19 1.66-8.22 4.63-11.19 2.97-2.96 7-4.63 11.19-4.63h9.47c67.33 0 103.56-30.85 103.56-98.18 0-67.34-54.67-122.01-122.01-122.01 0 0-26.85-.06-49.49-.12a86.228 86.228 0 0 1-53.58-18.82c-9.58-7.68-18.52-14.52-18.52-13.28 0 0-.38 34.92-.41 38.18-.01.16-.01.32-.01.48v308Z" style="fill:#f2f1ee" transform="matrix(.29094 0 0 .29094 -2185.65 -1511.476)"/></svg>