<?xml version="1.0" encoding="UTF-8" standalone="no"?>
<!DOCTYPE svg PUBLIC "-//W3C//DTD SVG 1.1//EN" "http://www.w3.org/Graphics/SVG/1.1/DTD/svg11.dtd">
<svg width="100%" height="100%" viewBox="0 0 500 500" version="1.1" xmlns="http://www.w3.org/2000/svg" xmlns:xlink="http://www.w3.org/1999/xlink" xml:space="preserve" xmlns:serif="http://www.serif.com/" style="fill-rule:evenodd;clip-rule:evenodd;stroke-linecap:round;stroke-linejoin:round;stroke-miterlimit:1.5;">
    <g transform="matrix(1,0,0,1,0,-1341.51)">
        <g id="Artboard2" transform="matrix(0.66535,0,0,0.768004,900.783,227.712)">
            <rect x="-1353.85" y="1450.24" width="751.484" height="651.038" style="fill:none;"/>
            <clipPath id="_clip1">
                <rect x="-1353.85" y="1450.24" width="751.484" height="651.038"/>
            </clipPath>
            <g clip-path="url(#_clip1)">
                <g transform="matrix(1.5608,0,0,1.35218,-1661.72,608.948)">
                    <g transform="matrix(3.60754,0,0,3.60754,-396.182,-859.629)">
                        <path d="M203.522,531.41c-0.156,-6.417 -2.672,-12.552 -7.068,-17.231c4.396,4.679 6.912,10.814 7.068,17.231Z" style="fill:#006aae;stroke:var(--color-drawing-yellow);stroke-width:1px;"/>
                    </g>
                    <g transform="matrix(1.93878,0,0,1.93878,262.942,28.5468)">
                        <path d="M176.806,505.963c-13.911,0.338 -25.109,11.535 -25.447,25.447c0.338,-13.912 11.536,-25.109 25.447,-25.447Z" style="fill:none;stroke:var(--color-drawing-gray);stroke-width:1.86px;"/>
                    </g>
                    <g transform="matrix(2.16453,0,0,2.16453,-301.493,-93.104)">
                        <g transform="matrix(0.444877,-0,-0,0.444877,230.419,330.457)">
                            <path d="M56.057,15.565l-5.62,-11.239l-5.619,11.239c2.809,-2.81 8.429,-2.81 11.239,-0Z" style="fill:var(--color-drawing-gray);"/>
                            <path d="M488.757,447.935l11.243,5.611l-11.235,5.628c2.808,-2.812 2.804,-8.431 -0.008,-11.239Z" style="fill:var(--color-drawing-gray);"/>
                            <path d="M50.437,13.317l0,440.572c0,-0 377.178,-0.288 440.572,-0.336" style="fill:none;stroke:var(--color-drawing-gray);stroke-width:3.75px;"/>
                        </g>
                    </g>
                    <g transform="matrix(-1.79709,2.2008e-16,-2.20227e-16,-1.79829,1061.11,1655.76)">
                        <path d="M252.857,335.783l0,196.598" style="fill:none;stroke:var(--color-drawing-red-weak);stroke-width:2.01px;stroke-dasharray:4.01,8.03,0,0,0,0;"/>
                    </g>
                    <g transform="matrix(-1.79709,2.2008e-16,-2.20227e-16,-1.79829,1061.11,1655.76)">
                        <path d="M252.857,532.381l196.729,-0.15" style="fill:none;stroke:var(--color-drawing-blue-weak);stroke-width:2.01px;stroke-dasharray:4.01,8.03,0,0,0,0;"/>
                    </g>
                    <g transform="matrix(1.63303,0,0,1.63303,3.46882,248.287)">
                        <g transform="matrix(24,0,0,24,177.696,490.418)">
                            <path d="M0.451,-0.519l0.09,0c-0.023,0.072 -0.044,0.158 -0.063,0.26c0.022,0.125 0.043,0.212 0.063,0.259l-0.088,-0c-0.014,-0.033 -0.024,-0.064 -0.032,-0.095c-0.027,0.071 -0.083,0.107 -0.169,0.107c-0.065,-0 -0.118,-0.025 -0.157,-0.074c-0.04,-0.048 -0.06,-0.115 -0.06,-0.198c0,-0.086 0.02,-0.153 0.06,-0.2c0.04,-0.047 0.093,-0.07 0.158,-0.07c0.041,-0 0.074,0.008 0.1,0.024c0.026,0.017 0.05,0.042 0.072,0.075c0.002,-0.011 0.011,-0.04 0.026,-0.088Zm-0.183,0.061c-0.042,0 -0.075,0.017 -0.1,0.051c-0.024,0.034 -0.036,0.083 -0.036,0.147c-0,0.062 0.011,0.111 0.035,0.146c0.023,0.036 0.055,0.053 0.096,0.053c0.041,0 0.074,-0.017 0.101,-0.052c0.027,-0.035 0.041,-0.085 0.041,-0.151c-0,-0.064 -0.013,-0.112 -0.038,-0.145c-0.025,-0.032 -0.058,-0.049 -0.099,-0.049Z" style="fill:var(--color-drawing-yellow);fill-rule:nonzero;"/>
                        </g>
                    </g>
                    <g transform="matrix(1.63303,-9.99945e-17,9.99945e-17,1.63303,-93.1018,81.1909)">
                        <g transform="matrix(24,0,0,24,177.696,490.418)">
                            <path d="M0.282,-0l-0.278,-0.716l0.103,0l0.186,0.52c0.015,0.042 0.027,0.081 0.038,0.117c0.011,-0.039 0.023,-0.078 0.038,-0.117l0.194,-0.52l0.096,0l-0.28,0.716l-0.097,-0Z" style="fill:var(--color-drawing-red);fill-rule:nonzero;"/>
                        </g>
                        <g transform="matrix(13.2546,0,0,13.2546,193.704,490.418)">
                            <path d="M0.487,-0.012c-0,0.032 -0.004,0.061 -0.012,0.088c-0.009,0.028 -0.021,0.051 -0.039,0.071c-0.018,0.019 -0.041,0.035 -0.069,0.046c-0.029,0.011 -0.063,0.017 -0.103,0.017c-0.028,-0 -0.054,-0.003 -0.078,-0.009c-0.024,-0.006 -0.045,-0.016 -0.063,-0.029c-0.018,-0.013 -0.032,-0.031 -0.043,-0.052c-0.01,-0.021 -0.015,-0.047 -0.015,-0.077l0.086,0.013c0.006,0.055 0.043,0.082 0.112,0.082c0.021,0 0.04,-0.003 0.058,-0.008c0.017,-0.005 0.031,-0.014 0.043,-0.026c0.012,-0.012 0.022,-0.029 0.028,-0.049c0.007,-0.02 0.01,-0.044 0.01,-0.073l-0,-0.073l-0.002,0c-0.02,0.03 -0.043,0.052 -0.068,0.067c-0.025,0.015 -0.054,0.022 -0.089,0.022c-0.034,0 -0.062,-0.005 -0.085,-0.016c-0.023,-0.011 -0.041,-0.026 -0.055,-0.045c-0.014,-0.018 -0.023,-0.041 -0.029,-0.066c-0.005,-0.025 -0.008,-0.053 -0.008,-0.082l-0,-0.307l0.088,-0l-0,0.272c-0,0.029 0.001,0.053 0.003,0.074c0.002,0.021 0.007,0.039 0.014,0.052c0.007,0.014 0.018,0.024 0.032,0.031c0.015,0.007 0.034,0.01 0.058,0.01c0.025,-0 0.046,-0.004 0.063,-0.012c0.018,-0.008 0.032,-0.02 0.043,-0.035c0.011,-0.015 0.019,-0.033 0.024,-0.055c0.005,-0.022 0.008,-0.047 0.008,-0.075l-0,-0.262l0.088,-0l-0,0.506Z" style="fill:var(--color-drawing-red);fill-rule:nonzero;"/>
                        </g>
                    </g>
                    <g transform="matrix(2.55068,-1.75592,2.55084,1.76586,-1757.29,562.845)">
                        <g transform="matrix(0.189289,0.188224,-0.273435,0.273417,367.362,398.894)">
                            <path d="M44.698,90.316l5.62,-11.239l5.619,11.239c-2.81,-2.81 -8.429,-2.81 -11.239,0Z" style="fill:var(--color-drawing-red);"/>
                            <path d="M50.318,453.796l-0,-365.728" style="fill:none;stroke:var(--color-drawing-red);stroke-width:3.75px;"/>
                        </g>
                    </g>
                    <g transform="matrix(2.12989,0,0,2.12989,-147.769,-73.8081)">
                        <circle cx="345.584" cy="522.691" r="1.981" style="fill:var(--color-drawing-gray);"/>
                    </g>
                    <g transform="matrix(1.63303,-9.99945e-17,9.99945e-17,1.63303,130.082,298.615)">
                        <g transform="matrix(24,0,0,24,177.696,490.418)">
                            <path d="M0.282,-0l-0.278,-0.716l0.103,0l0.186,0.52c0.015,0.042 0.027,0.081 0.038,0.117c0.011,-0.039 0.023,-0.078 0.038,-0.117l0.194,-0.52l0.096,0l-0.28,0.716l-0.097,-0Z" style="fill:var(--color-drawing-blue);fill-rule:nonzero;"/>
                        </g>
                        <g transform="matrix(13.2546,0,0,13.2546,193.704,490.418)">
                            <path d="M0.007,-0l0.19,-0.27l-0.176,-0.249l0.11,0l0.08,0.122c0.015,0.023 0.027,0.043 0.036,0.058c0.014,-0.021 0.028,-0.04 0.04,-0.057l0.087,-0.123l0.105,0l-0.179,0.245l0.193,0.274l-0.108,-0l-0.107,-0.161l-0.028,-0.044l-0.136,0.205l-0.107,-0Z" style="fill:var(--color-drawing-blue);fill-rule:nonzero;"/>
                        </g>
                    </g>
                    <g transform="matrix(1.75592,2.55068,-1.76586,2.55084,742.175,-943.652)">
                        <g transform="matrix(0.273435,-0.273417,0.189289,0.188224,153.066,460.791)">
                            <path d="M413.958,448.366l11.239,5.619l-11.239,5.62c2.81,-2.81 2.81,-8.429 -0,-11.239Z" style="fill:var(--color-drawing-blue);"/>
                            <path d="M50.478,453.985l365.728,0" style="fill:none;stroke:var(--color-drawing-blue);stroke-width:3.75px;"/>
                        </g>
                    </g>
                    <g transform="matrix(1.15473,-1.15473,1.15473,1.15473,-375.54,527.407)">
                        <g transform="matrix(24,0,0,24,177.696,490.418)">
                            <path d="M0.282,-0l-0.278,-0.716l0.103,0l0.186,0.52c0.015,0.042 0.027,0.081 0.038,0.117c0.011,-0.039 0.023,-0.078 0.038,-0.117l0.194,-0.52l0.096,0l-0.28,0.716l-0.097,-0Z" style="fill:var(--color-drawing-green);fill-rule:nonzero;"/>
                        </g>
                        <g transform="matrix(13.2546,0,0,13.2546,193.704,490.418)">
                            <path d="M0.042,-0.353c-0,-0.085 0.008,-0.153 0.026,-0.204c0.017,-0.052 0.043,-0.092 0.077,-0.12c0.035,-0.028 0.078,-0.042 0.13,-0.042c0.038,0 0.072,0.008 0.101,0.023c0.029,0.016 0.053,0.038 0.072,0.067c0.019,0.029 0.033,0.065 0.044,0.107c0.011,0.042 0.016,0.098 0.016,0.169c0,0.084 -0.008,0.152 -0.026,0.203c-0.017,0.052 -0.043,0.092 -0.077,0.12c-0.034,0.028 -0.078,0.042 -0.13,0.042c-0.069,0 -0.123,-0.025 -0.163,-0.074c-0.047,-0.06 -0.07,-0.157 -0.07,-0.291Zm0.09,-0c-0,0.117 0.014,0.196 0.041,0.235c0.028,0.038 0.062,0.058 0.102,0.058c0.04,-0 0.074,-0.02 0.102,-0.059c0.027,-0.039 0.041,-0.117 0.041,-0.234c-0,-0.118 -0.014,-0.196 -0.041,-0.235c-0.028,-0.039 -0.062,-0.058 -0.103,-0.058c-0.04,0 -0.073,0.017 -0.097,0.051c-0.03,0.044 -0.045,0.124 -0.045,0.242Z" style="fill:var(--color-drawing-green);fill-rule:nonzero;"/>
                        </g>
                    </g>
                    <g transform="matrix(3.54895,0.0534704,0.0534578,3.55879,-678.918,-849.025)">
                        <g transform="matrix(0.271394,-0.00407766,-0.0040767,0.270644,240.71,409.783)">
                            <path d="M411.391,84.999l11.921,-3.972l-3.975,11.92c0.001,-3.974 -3.972,-7.948 -7.946,-7.948Z" style="fill:var(--color-drawing-green);"/>
                            <path d="M50.334,453.902c0,0 317.47,-317.382 366.62,-366.518" style="fill:none;stroke:var(--color-drawing-green);stroke-width:3.75px;"/>
                        </g>
                    </g>
                </g>
            </g>
        </g>
    </g>
</svg>
